<svg width="120" height="120" viewBox="0 0 120 120" fill="none" xmlns="http://www.w3.org/2000/svg">
<path d="M46.3 46.3L15 55V70L85.7 85.7" stroke="white" stroke-width="10" stroke-linecap="round" stroke-linejoin="round"/>
<path d="M105 76.7V30L68.4502 40.15" stroke="white" stroke-width="10" stroke-linecap="round" stroke-linejoin="round"/>
<path d="M58.0001 84C57.4748 85.9042 56.5796 87.6862 55.3656 89.2444C54.1516 90.8026 52.6426 92.1065 50.9247 93.0815C49.2068 94.0565 47.3137 94.6836 45.3535 94.927C43.3933 95.1704 41.4043 95.0253 39.5001 94.5C37.5959 93.9747 35.8139 93.0795 34.2557 91.8655C32.6975 90.6515 31.3936 89.1425 30.4186 87.4246C29.4436 85.7067 28.8165 83.8136 28.5731 81.8534C28.3297 79.8932 28.4748 77.9042 29.0001 76" stroke="white" stroke-width="10" stroke-linecap="round" stroke-linejoin="round"/>
<path d="M10 10L110 110" stroke="white" stroke-width="10" stroke-linecap="round" stroke-linejoin="round"/>
</svg>
